<?xml version="1.0" encoding="utf-8" standalone="no"?>
<!DOCTYPE svg PUBLIC "-//W3C//DTD SVG 1.1//EN"
  "http://www.w3.org/Graphics/SVG/1.1/DTD/svg11.dtd">
<svg xmlns:xlink="http://www.w3.org/1999/xlink" width="394.361917pt" height="384.385601pt" viewBox="0 0 394.361917 384.385601" xmlns="http://www.w3.org/2000/svg" version="1.1">
 <metadata>
  <rdf:RDF xmlns:dc="http://purl.org/dc/elements/1.1/" xmlns:cc="http://creativecommons.org/ns#" xmlns:rdf="http://www.w3.org/1999/02/22-rdf-syntax-ns#">
   <cc:Work>
    <dc:type rdf:resource="http://purl.org/dc/dcmitype/StillImage"/>
    <dc:date>2024-10-12T17:59:49.563020</dc:date>
    <dc:format>image/svg+xml</dc:format>
    <dc:creator>
     <cc:Agent>
      <dc:title>Matplotlib v3.7.2, https://matplotlib.org/</dc:title>
     </cc:Agent>
    </dc:creator>
   </cc:Work>
  </rdf:RDF>
 </metadata>
 <defs>
  <style type="text/css">*{stroke-linejoin: round; stroke-linecap: butt}</style>
 </defs>
 <g id="figure_1">
  <g id="patch_1">
   <path d="M 0 384.385601 
L 394.361917 384.385601 
L 394.361917 0 
L 0 0 
z
" style="fill: #ffffff"/>
  </g>
  <g id="axes_1">
   <g id="patch_2">
    <path d="M 45.533428 339.84 
L 380.333428 339.84 
L 380.333428 7.2 
L 45.533428 7.2 
z
" style="fill: #ffffff"/>
   </g>
   <g id="PolyCollection_1">
    <defs>
     <path id="m9449c12c12" d="M 46.579678 -48.063875 
L 46.579678 -47.31962 
L 48.672178 -48.927509 
L 50.764678 -50.284726 
L 52.857178 -50.332927 
L 54.949678 -50.40747 
L 57.042178 -50.554954 
L 59.134678 -50.664417 
L 61.227178 -50.819095 
L 63.319678 -50.935048 
L 65.412178 -51.133165 
L 67.504678 -51.306472 
L 69.597178 -51.487869 
L 71.689678 -51.692822 
L 73.782178 -51.917182 
L 75.874678 -52.222728 
L 77.967178 -52.466966 
L 80.059678 -52.812522 
L 82.152178 -53.208693 
L 84.244678 -53.545798 
L 86.337178 -54.069873 
L 88.429678 -54.543628 
L 90.522178 -55.082706 
L 92.614678 -55.722571 
L 94.707178 -56.383156 
L 96.799678 -57.085843 
L 98.892178 -58.017502 
L 100.984678 -58.809555 
L 103.077178 -59.810947 
L 105.169678 -60.798559 
L 107.262178 -61.832054 
L 109.354678 -62.910582 
L 111.447178 -64.085798 
L 113.539678 -65.086639 
L 115.632178 -66.115252 
L 117.724678 -67.0578 
L 119.817178 -67.859698 
L 121.909678 -68.873793 
L 124.002178 -69.537142 
L 126.094678 -70.349262 
L 128.187178 -71.090326 
L 130.279678 -71.731309 
L 132.372178 -72.274225 
L 134.464678 -72.878348 
L 136.557178 -73.396421 
L 138.649678 -74.178097 
L 140.742178 -74.266658 
L 142.834678 -74.998762 
L 144.927178 -75.411159 
L 147.019678 -76.259399 
L 149.112178 -77.220276 
L 151.204678 -78.094305 
L 153.297182 -79.010558 
L 155.389682 -80.048062 
L 157.482178 -81.765585 
L 159.574678 -83.777146 
L 161.667178 -85.954566 
L 163.759682 -88.740016 
L 165.852182 -91.948048 
L 167.944678 -95.684078 
L 170.037178 -100.147415 
L 172.129678 -105.337087 
L 174.222182 -111.340483 
L 176.314682 -118.019373 
L 178.407178 -125.971113 
L 180.499678 -134.072883 
L 182.592178 -143.048302 
L 184.684682 -152.459218 
L 186.777182 -160.907891 
L 188.869678 -168.521863 
L 190.962178 -176.849383 
L 193.054678 -183.939218 
L 195.147182 -187.817202 
L 197.239682 -193.236317 
L 199.332178 -197.12812 
L 201.424678 -199.837014 
L 203.517178 -201.792812 
L 205.609682 -202.085636 
L 207.702182 -202.650011 
L 209.794678 -201.813949 
L 211.887178 -199.720961 
L 213.979678 -196.576595 
L 216.072178 -194.12134 
L 218.164678 -192.518379 
L 220.257182 -190.429724 
L 222.349682 -188.030841 
L 224.442178 -185.0947 
L 226.534678 -180.815405 
L 228.627178 -177.803868 
L 230.719682 -174.164337 
L 232.812182 -169.930322 
L 234.904678 -164.964098 
L 236.997178 -160.204237 
L 239.089678 -153.657298 
L 241.182182 -147.366485 
L 243.274682 -140.918913 
L 245.36718 -134.899503 
L 247.459678 -129.342798 
L 249.552178 -123.058188 
L 251.644682 -117.126 
L 253.737182 -111.155316 
L 255.829678 -105.437404 
L 257.922178 -100.550411 
L 260.014678 -95.634297 
L 262.107182 -91.473264 
L 264.199682 -87.796571 
L 266.292178 -84.227722 
L 268.384678 -81.129154 
L 270.477178 -78.483658 
L 272.569682 -76.363815 
L 274.662182 -74.364576 
L 276.754678 -72.736452 
L 278.847178 -71.421256 
L 280.939678 -70.119926 
L 283.032178 -69.241896 
L 285.124678 -68.383642 
L 287.217178 -67.510471 
L 289.309678 -66.661672 
L 291.402178 -66.022725 
L 293.494678 -65.254523 
L 295.587178 -64.633156 
L 297.679678 -64.239587 
L 299.772178 -63.710204 
L 301.864678 -63.096937 
L 303.957178 -62.534948 
L 306.049678 -61.881995 
L 308.142178 -61.312036 
L 310.234678 -60.568049 
L 312.327178 -59.936336 
L 314.419678 -59.238153 
L 316.512178 -58.467471 
L 318.604678 -57.710144 
L 320.697178 -57.133756 
L 322.789678 -56.623497 
L 324.882178 -56.05612 
L 326.974678 -55.440458 
L 329.067178 -54.937962 
L 331.159678 -54.398946 
L 333.252178 -53.98477 
L 335.344678 -53.513946 
L 337.437178 -53.099791 
L 339.529678 -52.761398 
L 341.622178 -52.413488 
L 343.714678 -52.119686 
L 345.807178 -51.773928 
L 347.899678 -51.53164 
L 349.992178 -51.333945 
L 352.084678 -51.073159 
L 354.177178 -50.876849 
L 356.269678 -50.687531 
L 358.362178 -50.543706 
L 360.454678 -50.379327 
L 362.547178 -50.231736 
L 364.639678 -50.116233 
L 366.732178 -50.02027 
L 368.824678 -49.915901 
L 370.917178 -49.786749 
L 373.009678 -49.705811 
L 375.102178 -49.603285 
L 377.194678 -48.480608 
L 379.287178 -47.207799 
L 379.287178 -47.833989 
L 379.287178 -47.833989 
L 377.194678 -51.121778 
L 375.102178 -53.864353 
L 373.009678 -53.835466 
L 370.917178 -53.947816 
L 368.824678 -53.975501 
L 366.732178 -54.091253 
L 364.639678 -54.276566 
L 362.547178 -54.306693 
L 360.454678 -54.436199 
L 358.362178 -54.538978 
L 356.269678 -54.669019 
L 354.177178 -54.829531 
L 352.084678 -55.089309 
L 349.992178 -55.375201 
L 347.899678 -55.685171 
L 345.807178 -56.007109 
L 343.714678 -56.529543 
L 341.622178 -56.962084 
L 339.529678 -57.278906 
L 337.437178 -57.924907 
L 335.344678 -58.57965 
L 333.252178 -59.217859 
L 331.159678 -59.933449 
L 329.067178 -60.519242 
L 326.974678 -61.321996 
L 324.882178 -62.091939 
L 322.789678 -62.926611 
L 320.697178 -63.712572 
L 318.604678 -64.53413 
L 316.512178 -65.6085 
L 314.419678 -66.498263 
L 312.327178 -67.26748 
L 310.234678 -68.183516 
L 308.142178 -69.129841 
L 306.049678 -69.981477 
L 303.957178 -70.626088 
L 301.864678 -71.544507 
L 299.772178 -72.340366 
L 297.679678 -73.254395 
L 295.587178 -73.890671 
L 293.494678 -74.860127 
L 291.402178 -75.532456 
L 289.309678 -76.167576 
L 287.217178 -77.046347 
L 285.124678 -77.840054 
L 283.032178 -78.801987 
L 280.939678 -80.149351 
L 278.847178 -81.57925 
L 276.754678 -83.061937 
L 274.662182 -85.387093 
L 272.569682 -87.836031 
L 270.477178 -90.938908 
L 268.384678 -94.372596 
L 266.292178 -98.280176 
L 264.199682 -102.462275 
L 262.107182 -107.348321 
L 260.014678 -112.925358 
L 257.922178 -118.583098 
L 255.829678 -124.443417 
L 253.737182 -131.034781 
L 251.644682 -138.104374 
L 249.552178 -146.255367 
L 247.459678 -153.726044 
L 245.36718 -160.925194 
L 243.274682 -169.281147 
L 241.182182 -177.592045 
L 239.089678 -186.444543 
L 236.997178 -194.93101 
L 234.904678 -204.104728 
L 232.812182 -214.357115 
L 230.719682 -224.335841 
L 228.627178 -234.612646 
L 226.534678 -244.621916 
L 224.442178 -254.146114 
L 222.349682 -264.709058 
L 220.257182 -274.633072 
L 218.164678 -282.143022 
L 216.072178 -287.933554 
L 213.979678 -293.081886 
L 211.887178 -294.894985 
L 209.794678 -298.485823 
L 207.702182 -298.662059 
L 205.609682 -300.587525 
L 203.517178 -295.655706 
L 201.424678 -288.760147 
L 199.332178 -281.475314 
L 197.239682 -268.76836 
L 195.147182 -257.593588 
L 193.054678 -242.050109 
L 190.962178 -228.057597 
L 188.869678 -214.238088 
L 186.777182 -201.385687 
L 184.684682 -187.967626 
L 182.592178 -174.372775 
L 180.499678 -163.012549 
L 178.407178 -151.657655 
L 176.314682 -140.543822 
L 174.222182 -131.440787 
L 172.129678 -123.346293 
L 170.037178 -116.623183 
L 167.944678 -111.01522 
L 165.852182 -106.166008 
L 163.759682 -102.489917 
L 161.667178 -99.378003 
L 159.574678 -96.494128 
L 157.482178 -94.506326 
L 155.389682 -92.828879 
L 153.297182 -91.278763 
L 151.204678 -89.980717 
L 149.112178 -88.879671 
L 147.019678 -88.112235 
L 144.927178 -87.059796 
L 142.834678 -86.629626 
L 140.742178 -85.955834 
L 138.649678 -85.434343 
L 136.557178 -84.632232 
L 134.464678 -84.108533 
L 132.372178 -83.245536 
L 130.279678 -82.492003 
L 128.187178 -81.834666 
L 126.094678 -80.862556 
L 124.002178 -79.971665 
L 121.909678 -78.74049 
L 119.817178 -77.807595 
L 117.724678 -76.250132 
L 115.632178 -75.070588 
L 113.539678 -73.59474 
L 111.447178 -72.098216 
L 109.354678 -70.91068 
L 107.262178 -69.446987 
L 105.169678 -68.05683 
L 103.077178 -66.635139 
L 100.984678 -65.337885 
L 98.892178 -63.982326 
L 96.799678 -62.800469 
L 94.707178 -61.695931 
L 92.614678 -60.738435 
L 90.522178 -59.865204 
L 88.429678 -59.04604 
L 86.337178 -58.363634 
L 84.244678 -57.799225 
L 82.152178 -57.314852 
L 80.059678 -56.851431 
L 77.967178 -56.489072 
L 75.874678 -56.158778 
L 73.782178 -55.852914 
L 71.689678 -55.550604 
L 69.597178 -55.274407 
L 67.504678 -55.092754 
L 65.412178 -54.893101 
L 63.319678 -54.830583 
L 61.227178 -54.815423 
L 59.134678 -54.730199 
L 57.042178 -54.811442 
L 54.949678 -54.792705 
L 52.857178 -54.891366 
L 50.764678 -54.925477 
L 48.672178 -51.79349 
L 46.579678 -48.063875 
z
" style="stroke: #ff8c00; stroke-opacity: 0.2"/>
    </defs>
    <g clip-path="url(#p7a6a931a8f)">
     <use xlink:href="#m9449c12c12" x="0" y="384.385601" style="fill: #ff8c00; fill-opacity: 0.2; stroke: #ff8c00; stroke-opacity: 0.2"/>
    </g>
   </g>
   <g id="PolyCollection_2">
    <defs>
     <path id="m06ce593572" d="M 46.579678 -48.662928 
L 46.579678 -47.152119 
L 48.672178 -48.216057 
L 50.764678 -49.167201 
L 52.857178 -49.327834 
L 54.949678 -49.361802 
L 57.042178 -49.484564 
L 59.134678 -49.621846 
L 61.227178 -49.743805 
L 63.319678 -49.820788 
L 65.412178 -50.008669 
L 67.504678 -50.123328 
L 69.597178 -50.257415 
L 71.689678 -50.373795 
L 73.782178 -50.511154 
L 75.874678 -50.794522 
L 77.967178 -50.999012 
L 80.059678 -51.361952 
L 82.152178 -51.706567 
L 84.244678 -52.039114 
L 86.337178 -52.435405 
L 88.429678 -52.880613 
L 90.522178 -53.286179 
L 92.614678 -53.880274 
L 94.707178 -54.464106 
L 96.799678 -55.079299 
L 98.892178 -56.011285 
L 100.984678 -56.786471 
L 103.077178 -57.568333 
L 105.169678 -58.410655 
L 107.262178 -59.28765 
L 109.354678 -60.310989 
L 111.447178 -61.289532 
L 113.539678 -62.088395 
L 115.632178 -62.863512 
L 117.724678 -64.034835 
L 119.817178 -64.515001 
L 121.909678 -65.444975 
L 124.002178 -66.161569 
L 126.094678 -66.846998 
L 128.187178 -67.551209 
L 130.279678 -67.288482 
L 132.372178 -68.19835 
L 134.464678 -68.889581 
L 136.557178 -69.465593 
L 138.649678 -69.886187 
L 140.742178 -70.010918 
L 142.834678 -70.639724 
L 144.927178 -71.03579 
L 147.019678 -71.608913 
L 149.112178 -72.079729 
L 151.204678 -73.20182 
L 153.297182 -73.901867 
L 155.389682 -75.265126 
L 157.482178 -77.003365 
L 159.574678 -78.807929 
L 161.667178 -81.197893 
L 163.759682 -83.702331 
L 165.852182 -86.376085 
L 167.944678 -89.098209 
L 170.037178 -92.78066 
L 172.129678 -97.552311 
L 174.222182 -103.213474 
L 176.314682 -109.059863 
L 178.407178 -116.008251 
L 180.499678 -122.966386 
L 182.592178 -130.055717 
L 184.684682 -137.416611 
L 186.777182 -146.018178 
L 188.869678 -152.492919 
L 190.962178 -157.609648 
L 193.054678 -164.004641 
L 195.147182 -167.3908 
L 197.239682 -168.797015 
L 199.332178 -168.038129 
L 201.424678 -168.685523 
L 203.517178 -166.715358 
L 205.609682 -166.996093 
L 207.702182 -165.294624 
L 209.794678 -165.299925 
L 211.887178 -162.744075 
L 213.979678 -163.187522 
L 216.072178 -164.691629 
L 218.164678 -162.603033 
L 220.257182 -161.370505 
L 222.349682 -161.85555 
L 224.442178 -160.107441 
L 226.534678 -158.75916 
L 228.627178 -157.690359 
L 230.719682 -154.680878 
L 232.812182 -152.940546 
L 234.904678 -149.07618 
L 236.997178 -145.962697 
L 239.089678 -141.432761 
L 241.182182 -135.382944 
L 243.274682 -129.088452 
L 245.36718 -124.407763 
L 247.459678 -118.37915 
L 249.552178 -112.995267 
L 251.644682 -107.921413 
L 253.737182 -102.614339 
L 255.829678 -97.928638 
L 257.922178 -93.124769 
L 260.014678 -88.237761 
L 262.107182 -84.455955 
L 264.199682 -81.753964 
L 266.292178 -78.932572 
L 268.384678 -76.578096 
L 270.477178 -73.95817 
L 272.569682 -72.080965 
L 274.662182 -70.558125 
L 276.754678 -69.282343 
L 278.847178 -68.09463 
L 280.939678 -66.701969 
L 283.032178 -65.373925 
L 285.124678 -64.723945 
L 287.217178 -63.705439 
L 289.309678 -63.150088 
L 291.402178 -62.544151 
L 293.494678 -62.113127 
L 295.587178 -61.680982 
L 297.679678 -61.122023 
L 299.772178 -60.654707 
L 301.864678 -60.176571 
L 303.957178 -59.69942 
L 306.049678 -58.898479 
L 308.142178 -58.450594 
L 310.234678 -57.736921 
L 312.327178 -57.301114 
L 314.419678 -56.835729 
L 316.512178 -56.458156 
L 318.604678 -55.764148 
L 320.697178 -55.033261 
L 322.789678 -54.480306 
L 324.882178 -53.949444 
L 326.974678 -53.464784 
L 329.067178 -53.079626 
L 331.159678 -52.608655 
L 333.252178 -52.195352 
L 335.344678 -51.868731 
L 337.437178 -51.492603 
L 339.529678 -51.216464 
L 341.622178 -50.921023 
L 343.714678 -50.703178 
L 345.807178 -50.516521 
L 347.899678 -50.341736 
L 349.992178 -50.145165 
L 352.084678 -49.951701 
L 354.177178 -49.797783 
L 356.269678 -49.677284 
L 358.362178 -49.51546 
L 360.454678 -49.388125 
L 362.547178 -49.228487 
L 364.639678 -49.136182 
L 366.732178 -49.007588 
L 368.824678 -48.95439 
L 370.917178 -48.861108 
L 373.009678 -48.766755 
L 375.102178 -48.661045 
L 377.194678 -47.931777 
L 379.287178 -47.089284 
L 379.287178 -48.436428 
L 379.287178 -48.436428 
L 377.194678 -53.449262 
L 375.102178 -57.721202 
L 373.009678 -57.692577 
L 370.917178 -57.421216 
L 368.824678 -57.333797 
L 366.732178 -57.30361 
L 364.639678 -57.208704 
L 362.547178 -57.101876 
L 360.454678 -57.207034 
L 358.362178 -57.431767 
L 356.269678 -57.765575 
L 354.177178 -58.187192 
L 352.084678 -58.411242 
L 349.992178 -58.947254 
L 347.899678 -59.173425 
L 345.807178 -59.458371 
L 343.714678 -59.820237 
L 341.622178 -60.425465 
L 339.529678 -61.623148 
L 337.437178 -61.807618 
L 335.344678 -62.303009 
L 333.252178 -62.936173 
L 331.159678 -63.502635 
L 329.067178 -64.811693 
L 326.974678 -65.379584 
L 324.882178 -66.737592 
L 322.789678 -67.761004 
L 320.697178 -68.90118 
L 318.604678 -69.635867 
L 316.512178 -70.499219 
L 314.419678 -71.450524 
L 312.327178 -72.289536 
L 310.234678 -73.553015 
L 308.142178 -74.309697 
L 306.049678 -75.633867 
L 303.957178 -76.543349 
L 301.864678 -77.325772 
L 299.772178 -77.914214 
L 297.679678 -78.136096 
L 295.587178 -79.108978 
L 293.494678 -80.127067 
L 291.402178 -80.873512 
L 289.309678 -82.114423 
L 287.217178 -83.131036 
L 285.124678 -83.416591 
L 283.032178 -84.72955 
L 280.939678 -86.336829 
L 278.847178 -87.824189 
L 276.754678 -89.18283 
L 274.662182 -91.436741 
L 272.569682 -93.910856 
L 270.477178 -96.867555 
L 268.384678 -100.965059 
L 266.292178 -105.932521 
L 264.199682 -110.767589 
L 262.107182 -117.311714 
L 260.014678 -123.646395 
L 257.922178 -129.848437 
L 255.829678 -138.738682 
L 253.737182 -145.804562 
L 251.644682 -153.252243 
L 249.552178 -160.192225 
L 247.459678 -168.613139 
L 245.36718 -178.311974 
L 243.274682 -187.249376 
L 241.182182 -194.713648 
L 239.089678 -205.138257 
L 236.997178 -216.284878 
L 234.904678 -226.352128 
L 232.812182 -238.282682 
L 230.719682 -251.84653 
L 228.627178 -268.717217 
L 226.534678 -282.974326 
L 224.442178 -296.451808 
L 222.349682 -312.363284 
L 220.257182 -329.30695 
L 218.164678 -344.290792 
L 216.072178 -356.334536 
L 213.979678 -365.407308 
L 211.887178 -374.890611 
L 209.794678 -373.115193 
L 207.702182 -372.90212 
L 205.609682 -363.396127 
L 203.517178 -352.7498 
L 201.424678 -343.045736 
L 199.332178 -330.19119 
L 197.239682 -314.804881 
L 195.147182 -301.654218 
L 193.054678 -282.936936 
L 190.962178 -261.974755 
L 188.869678 -245.979605 
L 186.777182 -225.163958 
L 184.684682 -207.398679 
L 182.592178 -192.155114 
L 180.499678 -178.485293 
L 178.407178 -165.425882 
L 176.314682 -154.86111 
L 174.222182 -144.561329 
L 172.129678 -135.750823 
L 170.037178 -126.069467 
L 167.944678 -119.701515 
L 165.852182 -115.085558 
L 163.759682 -111.08004 
L 161.667178 -107.646782 
L 159.574678 -105.652139 
L 157.482178 -103.044339 
L 155.389682 -101.191104 
L 153.297182 -98.896723 
L 151.204678 -97.98153 
L 149.112178 -96.801869 
L 147.019678 -95.508095 
L 144.927178 -94.416245 
L 142.834678 -93.079388 
L 140.742178 -93.321842 
L 138.649678 -92.852063 
L 136.557178 -91.541669 
L 134.464678 -91.559988 
L 132.372178 -90.265015 
L 130.279678 -89.863057 
L 128.187178 -88.389166 
L 126.094678 -87.200643 
L 124.002178 -86.079624 
L 121.909678 -84.722279 
L 119.817178 -83.778228 
L 117.724678 -82.347527 
L 115.632178 -80.647185 
L 113.539678 -78.790685 
L 111.447178 -77.308596 
L 109.354678 -75.81554 
L 107.262178 -74.423186 
L 105.169678 -72.682535 
L 103.077178 -70.970259 
L 100.984678 -69.676765 
L 98.892178 -67.980875 
L 96.799678 -66.712051 
L 94.707178 -65.601786 
L 92.614678 -64.538182 
L 90.522178 -63.658913 
L 88.429678 -62.603385 
L 86.337178 -61.81271 
L 84.244678 -61.052806 
L 82.152178 -60.267483 
L 80.059678 -59.589234 
L 77.967178 -59.482093 
L 75.874678 -59.073086 
L 73.782178 -58.763185 
L 71.689678 -58.429966 
L 69.597178 -58.183186 
L 67.504678 -58.02883 
L 65.412178 -57.893065 
L 63.319678 -57.844061 
L 61.227178 -57.948291 
L 59.134678 -57.669176 
L 57.042178 -57.985159 
L 54.949678 -58.050291 
L 52.857178 -58.262322 
L 50.764678 -58.623313 
L 48.672178 -54.185003 
L 46.579678 -48.662928 
z
" style="stroke: #ff8c00; stroke-opacity: 0.1"/>
    </defs>
    <g clip-path="url(#p7a6a931a8f)">
     <use xlink:href="#m06ce593572" x="0" y="384.385601" style="fill: #ff8c00; fill-opacity: 0.1; stroke: #ff8c00; stroke-opacity: 0.1"/>
    </g>
   </g>
   <g id="PolyCollection_3">
    <path d="M 46.579678 -32476.636861 
L 46.579678 1485.040237 
L 48.672178 1485.040237 
L 48.672178 -32476.636861 
L 48.672178 -32476.636861 
L 46.579678 -32476.636861 
z
" clip-path="url(#p7a6a931a8f)" style="fill: #808080; fill-opacity: 0.175"/>
   </g>
   <g id="PolyCollection_4">
    <path d="M 100.984678 -32476.636861 
L 100.984678 1485.040237 
L 103.077178 1485.040237 
L 103.077178 -32476.636861 
L 103.077178 -32476.636861 
L 100.984678 -32476.636861 
z
" clip-path="url(#p7a6a931a8f)" style="fill: #808080; fill-opacity: 0.175"/>
   </g>
   <g id="PolyCollection_5">
    <path d="M 117.724678 -32476.636861 
L 117.724678 1485.040237 
L 119.817178 1485.040237 
L 121.909678 1485.040237 
L 124.002178 1485.040237 
L 124.002178 -32476.636861 
L 124.002178 -32476.636861 
L 121.909678 -32476.636861 
L 119.817178 -32476.636861 
L 117.724678 -32476.636861 
z
" clip-path="url(#p7a6a931a8f)" style="fill: #808080; fill-opacity: 0.175"/>
   </g>
   <g id="PolyCollection_6">
    <path d="M 134.464678 -32476.636861 
L 134.464678 1485.040237 
L 136.557178 1485.040237 
L 138.649678 1485.040237 
L 140.742178 1485.040237 
L 140.742178 -32476.636861 
L 140.742178 -32476.636861 
L 138.649678 -32476.636861 
L 136.557178 -32476.636861 
L 134.464678 -32476.636861 
z
" clip-path="url(#p7a6a931a8f)" style="fill: #808080; fill-opacity: 0.175"/>
   </g>
   <g id="PolyCollection_7">
    <path d="M 149.112178 -32476.636861 
L 149.112178 1485.040237 
L 151.204678 1485.040237 
L 153.297182 1485.040237 
L 153.297182 -32476.636861 
L 153.297182 -32476.636861 
L 151.204678 -32476.636861 
L 149.112178 -32476.636861 
z
" clip-path="url(#p7a6a931a8f)" style="fill: #808080; fill-opacity: 0.175"/>
   </g>
   <g id="PolyCollection_8">
    <path d="M 178.407178 -32476.636861 
L 178.407178 1485.040237 
L 180.499678 1485.040237 
L 182.592178 1485.040237 
L 184.684682 1485.040237 
L 186.777182 1485.040237 
L 188.869678 1485.040237 
L 190.962178 1485.040237 
L 193.054678 1485.040237 
L 195.147182 1485.040237 
L 197.239682 1485.040237 
L 199.332178 1485.040237 
L 201.424678 1485.040237 
L 203.517178 1485.040237 
L 205.609682 1485.040237 
L 207.702182 1485.040237 
L 209.794678 1485.040237 
L 211.887178 1485.040237 
L 213.979678 1485.040237 
L 216.072178 1485.040237 
L 218.164678 1485.040237 
L 220.257182 1485.040237 
L 222.349682 1485.040237 
L 224.442178 1485.040237 
L 226.534678 1485.040237 
L 228.627178 1485.040237 
L 230.719682 1485.040237 
L 232.812182 1485.040237 
L 234.904678 1485.040237 
L 234.904678 -32476.636861 
L 234.904678 -32476.636861 
L 232.812182 -32476.636861 
L 230.719682 -32476.636861 
L 228.627178 -32476.636861 
L 226.534678 -32476.636861 
L 224.442178 -32476.636861 
L 222.349682 -32476.636861 
L 220.257182 -32476.636861 
L 218.164678 -32476.636861 
L 216.072178 -32476.636861 
L 213.979678 -32476.636861 
L 211.887178 -32476.636861 
L 209.794678 -32476.636861 
L 207.702182 -32476.636861 
L 205.609682 -32476.636861 
L 203.517178 -32476.636861 
L 201.424678 -32476.636861 
L 199.332178 -32476.636861 
L 197.239682 -32476.636861 
L 195.147182 -32476.636861 
L 193.054678 -32476.636861 
L 190.962178 -32476.636861 
L 188.869678 -32476.636861 
L 186.777182 -32476.636861 
L 184.684682 -32476.636861 
L 182.592178 -32476.636861 
L 180.499678 -32476.636861 
L 178.407178 -32476.636861 
z
" clip-path="url(#p7a6a931a8f)" style="fill: #808080; fill-opacity: 0.175"/>
   </g>
   <g id="PolyCollection_9">
    <path d="M 239.089678 -32476.636861 
L 239.089678 1485.040237 
L 241.182182 1485.040237 
L 243.274682 1485.040237 
L 245.36718 1485.040237 
L 247.459678 1485.040237 
L 249.552178 1485.040237 
L 251.644682 1485.040237 
L 253.737182 1485.040237 
L 255.829678 1485.040237 
L 257.922178 1485.040237 
L 260.014678 1485.040237 
L 262.107182 1485.040237 
L 262.107182 -32476.636861 
L 262.107182 -32476.636861 
L 260.014678 -32476.636861 
L 257.922178 -32476.636861 
L 255.829678 -32476.636861 
L 253.737182 -32476.636861 
L 251.644682 -32476.636861 
L 249.552178 -32476.636861 
L 247.459678 -32476.636861 
L 245.36718 -32476.636861 
L 243.274682 -32476.636861 
L 241.182182 -32476.636861 
L 239.089678 -32476.636861 
z
" clip-path="url(#p7a6a931a8f)" style="fill: #808080; fill-opacity: 0.175"/>
   </g>
   <g id="PolyCollection_10">
    <path d="M 291.402178 -32476.636861 
L 291.402178 1485.040237 
L 293.494678 1485.040237 
L 295.587178 1485.040237 
L 297.679678 1485.040237 
L 297.679678 -32476.636861 
L 297.679678 -32476.636861 
L 295.587178 -32476.636861 
L 293.494678 -32476.636861 
L 291.402178 -32476.636861 
z
" clip-path="url(#p7a6a931a8f)" style="fill: #808080; fill-opacity: 0.175"/>
   </g>
   <g id="PolyCollection_11">
    <path d="M 377.194678 -32476.636861 
L 377.194678 1485.040237 
L 379.287178 1485.040237 
L 379.287178 -32476.636861 
L 379.287178 -32476.636861 
L 377.194678 -32476.636861 
z
" clip-path="url(#p7a6a931a8f)" style="fill: #808080; fill-opacity: 0.175"/>
   </g>
   <g id="matplotlib.axis_1">
    <g id="xtick_1">
     <g id="line2d_1">
      <defs>
       <path id="m8cb2f6f8a6" d="M 0 0 
L 0 3.5 
" style="stroke: #000000; stroke-width: 0.8"/>
      </defs>
      <g>
       <use xlink:href="#m8cb2f6f8a6" x="45.533428" y="339.84" style="stroke: #000000; stroke-width: 0.8"/>
      </g>
     </g>
     <g id="text_1">
      <!-- $\mathdefault{−20}$ -->
      <g transform="translate(33.280822 356.525876) scale(0.14 -0.14)">
       <defs>
        <path id="CMSY10-0" d="M 4218 1472 
C 4326 1472 4442 1472 4442 1600 
C 4442 1728 4326 1728 4218 1728 
L 755 1728 
C 646 1728 531 1728 531 1600 
C 531 1472 646 1472 755 1472 
L 4218 1472 
z
" transform="scale(0.015625)"/>
        <path id="CMR17-32" d="M 2669 989 
L 2554 989 
C 2490 536 2438 459 2413 420 
C 2381 369 1920 369 1830 369 
L 602 369 
C 832 619 1280 1072 1824 1597 
C 2214 1967 2669 2402 2669 3035 
C 2669 3790 2067 4224 1395 4224 
C 691 4224 262 3604 262 3030 
C 262 2780 448 2748 525 2748 
C 589 2748 781 2787 781 3010 
C 781 3207 614 3264 525 3264 
C 486 3264 448 3258 422 3245 
C 544 3790 915 4058 1306 4058 
C 1862 4058 2227 3617 2227 3035 
C 2227 2479 1901 2000 1536 1584 
L 262 146 
L 262 0 
L 2515 0 
L 2669 989 
z
" transform="scale(0.015625)"/>
        <path id="CMR17-30" d="M 2688 2025 
C 2688 2416 2682 3080 2413 3591 
C 2176 4039 1798 4198 1466 4198 
C 1158 4198 768 4058 525 3597 
C 269 3118 243 2524 243 2025 
C 243 1661 250 1106 448 619 
C 723 -39 1216 -128 1466 -128 
C 1760 -128 2208 -7 2470 600 
C 2662 1042 2688 1559 2688 2025 
z
M 1466 -26 
C 1056 -26 813 325 723 812 
C 653 1188 653 1738 653 2096 
C 653 2588 653 2997 736 3387 
C 858 3929 1216 4096 1466 4096 
C 1728 4096 2067 3923 2189 3400 
C 2272 3036 2278 2607 2278 2096 
C 2278 1680 2278 1169 2202 792 
C 2067 95 1690 -26 1466 -26 
z
" transform="scale(0.015625)"/>
       </defs>
       <use xlink:href="#CMSY10-0" transform="scale(0.996264)"/>
       <use xlink:href="#CMR17-32" transform="translate(77.487468 0) scale(0.996264)"/>
       <use xlink:href="#CMR17-30" transform="translate(123.177945 0) scale(0.996264)"/>
      </g>
     </g>
    </g>
    <g id="xtick_2">
     <g id="line2d_2">
      <g>
       <use xlink:href="#m8cb2f6f8a6" x="129.233428" y="339.84" style="stroke: #000000; stroke-width: 0.8"/>
      </g>
     </g>
     <g id="text_2">
      <!-- $\mathdefault{−10}$ -->
      <g transform="translate(116.980822 356.525876) scale(0.14 -0.14)">
       <defs>
        <path id="CMR17-31" d="M 1702 4058 
C 1702 4192 1696 4192 1606 4192 
C 1357 3916 979 3827 621 3827 
C 602 3827 570 3827 563 3808 
C 557 3795 557 3782 557 3648 
C 755 3648 1088 3686 1344 3839 
L 1344 461 
C 1344 236 1331 160 781 160 
L 589 160 
L 589 0 
C 896 0 1216 0 1523 0 
C 1830 0 2150 0 2458 0 
L 2458 160 
L 2266 160 
C 1715 160 1702 230 1702 458 
L 1702 4058 
z
" transform="scale(0.015625)"/>
       </defs>
       <use xlink:href="#CMSY10-0" transform="scale(0.996264)"/>
       <use xlink:href="#CMR17-31" transform="translate(77.487468 0) scale(0.996264)"/>
       <use xlink:href="#CMR17-30" transform="translate(123.177945 0) scale(0.996264)"/>
      </g>
     </g>
    </g>
    <g id="xtick_3">
     <g id="line2d_3">
      <g>
       <use xlink:href="#m8cb2f6f8a6" x="212.933428" y="339.84" style="stroke: #000000; stroke-width: 0.8"/>
      </g>
     </g>
     <g id="text_3">
      <!-- $\mathdefault{0}$ -->
      <g transform="translate(209.519184 356.525876) scale(0.14 -0.14)">
       <use xlink:href="#CMR17-30" transform="scale(0.996264)"/>
      </g>
     </g>
    </g>
    <g id="xtick_4">
     <g id="line2d_4">
      <g>
       <use xlink:href="#m8cb2f6f8a6" x="296.633428" y="339.84" style="stroke: #000000; stroke-width: 0.8"/>
      </g>
     </g>
     <g id="text_4">
      <!-- $\mathdefault{10}$ -->
      <g transform="translate(289.804939 356.525876) scale(0.14 -0.14)">
       <use xlink:href="#CMR17-31" transform="scale(0.996264)"/>
       <use xlink:href="#CMR17-30" transform="translate(45.690477 0) scale(0.996264)"/>
      </g>
     </g>
    </g>
    <g id="xtick_5">
     <g id="line2d_5">
      <g>
       <use xlink:href="#m8cb2f6f8a6" x="380.333428" y="339.84" style="stroke: #000000; stroke-width: 0.8"/>
      </g>
     </g>
     <g id="text_5">
      <!-- $\mathdefault{20}$ -->
      <g transform="translate(373.504939 356.525876) scale(0.14 -0.14)">
       <use xlink:href="#CMR17-32" transform="scale(0.996264)"/>
       <use xlink:href="#CMR17-30" transform="translate(45.690477 0) scale(0.996264)"/>
      </g>
     </g>
    </g>
    <g id="text_6">
     <!-- b (deg) -->
     <g transform="translate(191.309881 373.698677) scale(0.14 -0.14)">
      <defs>
       <path id="CMR17-62" d="M 960 4396 
L 198 4326 
L 198 4160 
C 576 4160 634 4122 634 3817 
L 634 -13 
L 749 -13 
L 934 441 
C 1120 141 1395 -64 1766 -64 
C 2406 -64 3053 500 3053 1370 
C 3053 2188 2477 2790 1830 2790 
C 1434 2790 1152 2579 960 2330 
L 960 4396 
z
M 973 2004 
C 973 2118 973 2138 1062 2272 
C 1312 2657 1670 2688 1792 2688 
C 1984 2688 2643 2585 2643 1376 
C 2643 108 1888 38 1734 38 
C 1536 38 1248 114 1043 486 
C 973 608 973 621 973 735 
L 973 2004 
z
" transform="scale(0.015625)"/>
       <path id="CMR17-28" d="M 1958 -1561 
C 1958 -1555 1958 -1542 1939 -1523 
C 1645 -1224 858 -407 858 1581 
C 858 3569 1632 4379 1946 4697 
C 1946 4704 1958 4717 1958 4736 
C 1958 4755 1939 4768 1914 4768 
C 1843 4768 1299 4296 986 3594 
C 666 2887 576 2199 576 1588 
C 576 1128 621 351 1005 -471 
C 1312 -1135 1837 -1600 1914 -1600 
C 1946 -1600 1958 -1587 1958 -1561 
z
" transform="scale(0.015625)"/>
       <path id="CMR17-64" d="M 1869 4326 
L 1869 4160 
C 2246 4160 2304 4122 2304 3820 
L 2304 2345 
C 2278 2377 2016 2790 1498 2790 
C 845 2790 211 2208 211 1364 
C 211 525 806 -64 1434 -64 
C 1978 -64 2259 337 2291 380 
L 2291 -63 
L 3066 -63 
L 3066 128 
C 2688 128 2630 166 2630 473 
L 2630 4396 
L 1869 4326 
z
M 2291 755 
C 2291 563 2176 390 2029 262 
C 1811 70 1594 38 1472 38 
C 1286 38 621 134 621 1356 
C 621 2612 1363 2688 1530 2688 
C 1824 2688 2061 2522 2208 2291 
C 2291 2157 2291 2138 2291 2023 
L 2291 755 
z
" transform="scale(0.015625)"/>
       <path id="CMR17-65" d="M 2438 1472 
C 2464 1498 2464 1511 2464 1576 
C 2464 2238 2118 2816 1389 2816 
C 710 2816 173 2169 173 1383 
C 173 551 781 -64 1459 -64 
C 2176 -64 2458 607 2458 740 
C 2458 784 2419 784 2406 784 
C 2362 784 2355 771 2330 696 
C 2189 265 1837 51 1504 51 
C 1229 51 954 203 781 480 
C 582 803 582 1176 582 1472 
L 2438 1472 
z
M 589 1568 
C 634 2505 1126 2714 1382 2714 
C 1818 2714 2112 2297 2118 1568 
L 589 1568 
z
" transform="scale(0.015625)"/>
       <path id="CMR17-67" d="M 710 1164 
C 832 1068 1043 960 1299 960 
C 1805 960 2240 1357 2240 1888 
C 2240 2054 2189 2310 1997 2509 
C 2176 2692 2438 2752 2586 2752 
C 2611 2752 2650 2752 2682 2734 
C 2656 2728 2598 2703 2598 2605 
C 2598 2527 2656 2471 2739 2471 
C 2835 2471 2886 2533 2886 2614 
C 2886 2731 2790 2854 2586 2854 
C 2330 2854 2106 2738 1926 2580 
C 1734 2753 1504 2816 1299 2816 
C 794 2816 358 2419 358 1888 
C 358 1522 570 1292 634 1228 
C 442 1004 442 743 442 711 
C 442 545 506 302 723 168 
C 390 85 128 -169 128 -486 
C 128 -943 736 -1280 1466 -1280 
C 2170 -1280 2803 -956 2803 -479 
C 2803 384 1856 384 1363 384 
C 1216 384 954 384 922 391 
C 723 423 589 602 589 826 
C 589 883 589 1024 710 1164 
z
M 1299 1068 
C 736 1068 736 1760 736 1889 
C 736 2016 736 2708 1299 2708 
C 1862 2708 1862 2016 1862 1889 
C 1862 1760 1862 1068 1299 1068 
z
M 1466 -1171 
C 826 -1171 384 -835 384 -486 
C 384 -289 493 -105 634 -4 
C 794 104 858 104 1293 104 
C 1818 104 2547 104 2547 -486 
C 2547 -835 2106 -1171 1466 -1171 
z
" transform="scale(0.015625)"/>
       <path id="CMR17-29" d="M 1683 1581 
C 1683 2040 1638 2817 1254 3639 
C 947 4303 422 4768 346 4768 
C 326 4768 301 4761 301 4729 
C 301 4717 307 4710 314 4697 
C 621 4378 1402 3568 1402 1584 
C 1402 -407 627 -1217 314 -1537 
C 307 -1549 301 -1556 301 -1568 
C 301 -1600 326 -1600 346 -1600 
C 416 -1600 960 -1128 1274 -426 
C 1594 281 1683 969 1683 1581 
z
" transform="scale(0.015625)"/>
      </defs>
      <use xlink:href="#CMR17-62" transform="scale(0.996264)"/>
      <use xlink:href="#CMR17-28" transform="translate(80.971336 0) scale(0.996264)"/>
      <use xlink:href="#CMR17-64" transform="translate(116.252104 0) scale(0.996264)"/>
      <use xlink:href="#CMR17-65" transform="translate(167.147474 0) scale(0.996264)"/>
      <use xlink:href="#CMR17-67" transform="translate(207.633134 0) scale(0.996264)"/>
      <use xlink:href="#CMR17-29" transform="translate(253.323611 0) scale(0.996264)"/>
     </g>
    </g>
   </g>
   <g id="matplotlib.axis_2">
    <g id="ytick_1">
     <g id="line2d_6">
      <defs>
       <path id="mf6aac529f4" d="M 0 0 
L -3.5 0 
" style="stroke: #000000; stroke-width: 0.8"/>
      </defs>
      <g>
       <use xlink:href="#mf6aac529f4" x="45.533428" y="337.54501" style="stroke: #000000; stroke-width: 0.8"/>
      </g>
     </g>
     <g id="text_7">
      <!-- $\mathdefault{0}$ -->
      <g transform="translate(31.704939 342.387948) scale(0.14 -0.14)">
       <use xlink:href="#CMR17-30" transform="scale(0.996264)"/>
      </g>
     </g>
    </g>
    <g id="ytick_2">
     <g id="line2d_7">
      <g>
       <use xlink:href="#mf6aac529f4" x="45.533428" y="291.6452" style="stroke: #000000; stroke-width: 0.8"/>
      </g>
     </g>
     <g id="text_8">
      <!-- $\mathdefault{5}$ -->
      <g transform="translate(31.704939 296.488139) scale(0.14 -0.14)">
       <defs>
        <path id="CMR17-35" d="M 730 3692 
C 794 3666 1056 3584 1325 3584 
C 1920 3584 2246 3911 2432 4100 
C 2432 4157 2432 4192 2394 4192 
C 2387 4192 2374 4192 2323 4163 
C 2099 4058 1837 3973 1517 3973 
C 1325 3973 1037 3999 723 4139 
C 653 4171 640 4171 634 4171 
C 602 4171 595 4164 595 4037 
L 595 2203 
C 595 2089 595 2057 659 2057 
C 691 2057 704 2070 736 2114 
C 941 2401 1222 2522 1542 2522 
C 1766 2522 2246 2382 2246 1289 
C 2246 1085 2246 715 2054 421 
C 1894 159 1645 25 1370 25 
C 947 25 518 320 403 814 
C 429 807 480 795 506 795 
C 589 795 749 840 749 1038 
C 749 1210 627 1280 506 1280 
C 358 1280 262 1190 262 1011 
C 262 454 704 -128 1382 -128 
C 2042 -128 2669 440 2669 1264 
C 2669 2030 2170 2624 1549 2624 
C 1222 2624 947 2503 730 2274 
L 730 3692 
z
" transform="scale(0.015625)"/>
       </defs>
       <use xlink:href="#CMR17-35" transform="scale(0.996264)"/>
      </g>
     </g>
    </g>
    <g id="ytick_3">
     <g id="line2d_8">
      <g>
       <use xlink:href="#mf6aac529f4" x="45.533428" y="245.745391" style="stroke: #000000; stroke-width: 0.8"/>
      </g>
     </g>
     <g id="text_9">
      <!-- $\mathdefault{10}$ -->
      <g transform="translate(24.876451 250.58833) scale(0.14 -0.14)">
       <use xlink:href="#CMR17-31" transform="scale(0.996264)"/>
       <use xlink:href="#CMR17-30" transform="translate(45.690477 0) scale(0.996264)"/>
      </g>
     </g>
    </g>
    <g id="ytick_4">
     <g id="line2d_9">
      <g>
       <use xlink:href="#mf6aac529f4" x="45.533428" y="199.845582" style="stroke: #000000; stroke-width: 0.8"/>
      </g>
     </g>
     <g id="text_10">
      <!-- $\mathdefault{15}$ -->
      <g transform="translate(24.876451 204.68852) scale(0.14 -0.14)">
       <use xlink:href="#CMR17-31" transform="scale(0.996264)"/>
       <use xlink:href="#CMR17-35" transform="translate(45.690477 0) scale(0.996264)"/>
      </g>
     </g>
    </g>
    <g id="ytick_5">
     <g id="line2d_10">
      <g>
       <use xlink:href="#mf6aac529f4" x="45.533428" y="153.945773" style="stroke: #000000; stroke-width: 0.8"/>
      </g>
     </g>
     <g id="text_11">
      <!-- $\mathdefault{20}$ -->
      <g transform="translate(24.876451 158.788711) scale(0.14 -0.14)">
       <use xlink:href="#CMR17-32" transform="scale(0.996264)"/>
       <use xlink:href="#CMR17-30" transform="translate(45.690477 0) scale(0.996264)"/>
      </g>
     </g>
    </g>
    <g id="ytick_6">
     <g id="line2d_11">
      <g>
       <use xlink:href="#mf6aac529f4" x="45.533428" y="108.045964" style="stroke: #000000; stroke-width: 0.8"/>
      </g>
     </g>
     <g id="text_12">
      <!-- $\mathdefault{25}$ -->
      <g transform="translate(24.876451 112.888902) scale(0.14 -0.14)">
       <use xlink:href="#CMR17-32" transform="scale(0.996264)"/>
       <use xlink:href="#CMR17-35" transform="translate(45.690477 0) scale(0.996264)"/>
      </g>
     </g>
    </g>
    <g id="ytick_7">
     <g id="line2d_12">
      <g>
       <use xlink:href="#mf6aac529f4" x="45.533428" y="62.146155" style="stroke: #000000; stroke-width: 0.8"/>
      </g>
     </g>
     <g id="text_13">
      <!-- $\mathdefault{30}$ -->
      <g transform="translate(24.876451 66.989093) scale(0.14 -0.14)">
       <defs>
        <path id="CMR17-33" d="M 1414 2157 
C 1984 2157 2234 1662 2234 1090 
C 2234 320 1824 25 1453 25 
C 1114 25 563 194 390 693 
C 422 680 454 680 486 680 
C 640 680 755 782 755 948 
C 755 1133 614 1216 486 1216 
C 378 1216 211 1165 211 926 
C 211 335 787 -128 1466 -128 
C 2176 -128 2720 430 2720 1085 
C 2720 1707 2208 2157 1600 2227 
C 2086 2328 2554 2756 2554 3329 
C 2554 3820 2048 4179 1472 4179 
C 890 4179 378 3829 378 3329 
C 378 3110 544 3072 627 3072 
C 762 3072 877 3155 877 3321 
C 877 3486 762 3569 627 3569 
C 602 3569 570 3569 544 3557 
C 730 3959 1235 4032 1459 4032 
C 1683 4032 2106 3925 2106 3320 
C 2106 3143 2080 2828 1862 2550 
C 1670 2304 1453 2304 1242 2284 
C 1210 2284 1062 2269 1037 2269 
C 992 2263 966 2257 966 2208 
C 966 2163 973 2157 1101 2157 
L 1414 2157 
z
" transform="scale(0.015625)"/>
       </defs>
       <use xlink:href="#CMR17-33" transform="scale(0.996264)"/>
       <use xlink:href="#CMR17-30" transform="translate(45.690477 0) scale(0.996264)"/>
      </g>
     </g>
    </g>
    <g id="ytick_8">
     <g id="line2d_13">
      <g>
       <use xlink:href="#mf6aac529f4" x="45.533428" y="16.246346" style="stroke: #000000; stroke-width: 0.8"/>
      </g>
     </g>
     <g id="text_14">
      <!-- $\mathdefault{35}$ -->
      <g transform="translate(24.876451 21.089284) scale(0.14 -0.14)">
       <use xlink:href="#CMR17-33" transform="scale(0.996264)"/>
       <use xlink:href="#CMR17-35" transform="translate(45.690477 0) scale(0.996264)"/>
      </g>
     </g>
    </g>
    <g id="text_15">
     <!-- $\lambda_{gce}$ -->
     <g transform="translate(16.885876 184.57542) rotate(-90) scale(0.14 -0.14)">
      <defs>
       <path id="CMMI12-15" d="M 1978 3965 
C 1818 4416 1312 4416 1229 4416 
C 1190 4416 1120 4416 1120 4352 
C 1120 4302 1158 4295 1190 4289 
C 1286 4276 1363 4263 1466 4080 
C 1530 3959 2189 2059 2189 2046 
C 2189 2040 2182 2033 2131 1982 
L 467 311 
C 390 234 339 183 339 102 
C 339 12 416 -64 518 -64 
C 544 -64 614 -51 653 -13 
C 755 82 1670 1194 2253 1881 
C 2419 1383 2624 797 2822 261 
C 2854 166 2886 76 2976 -6 
C 3040 -64 3053 -64 3232 -64 
L 3354 -64 
C 3379 -64 3424 -64 3424 -13 
C 3424 13 3418 19 3392 45 
C 3334 115 3290 229 3264 306 
L 1978 3965 
z
" transform="scale(0.015625)"/>
       <path id="CMMI12-67" d="M 2163 811 
C 2138 709 2125 683 2042 588 
C 1779 249 1510 128 1312 128 
C 1101 128 902 294 902 734 
C 902 1073 1094 1788 1235 2076 
C 1421 2433 1709 2689 1978 2689 
C 2400 2689 2483 2165 2483 2127 
L 2464 2037 
L 2163 811 
z
M 2560 2395 
C 2477 2580 2298 2816 1978 2816 
C 1280 2816 486 1941 486 990 
C 486 326 890 0 1299 0 
C 1638 0 1939 268 2054 396 
L 1914 -171 
C 1824 -516 1786 -674 1555 -894 
C 1293 -1152 1050 -1152 909 -1152 
C 717 -1152 557 -1139 397 -1089 
C 602 -1033 653 -858 653 -789 
C 653 -689 576 -588 435 -588 
C 282 -588 115 -714 115 -922 
C 115 -1180 378 -1280 922 -1280 
C 1747 -1280 2176 -753 2259 -410 
L 2970 2435 
C 2989 2511 2989 2524 2989 2536 
C 2989 2625 2918 2695 2822 2695 
C 2669 2695 2579 2567 2560 2395 
z
" transform="scale(0.015625)"/>
       <path id="CMMI12-63" d="M 2502 2431 
C 2381 2431 2323 2431 2234 2355 
C 2195 2323 2125 2227 2125 2125 
C 2125 1997 2221 1920 2342 1920 
C 2496 1920 2669 2044 2669 2292 
C 2669 2588 2374 2816 1933 2816 
C 1094 2816 256 1903 256 996 
C 256 441 602 -64 1254 -64 
C 2125 -64 2675 622 2675 706 
C 2675 744 2637 776 2611 776 
C 2592 776 2586 770 2528 713 
C 2118 162 1510 64 1267 64 
C 826 64 685 446 685 764 
C 685 988 794 1605 1024 2039 
C 1190 2338 1536 2682 1939 2682 
C 2022 2682 2374 2682 2502 2431 
z
" transform="scale(0.015625)"/>
       <path id="CMMI12-65" d="M 1146 1479 
C 1318 1479 1754 1479 2061 1595 
C 2547 1783 2592 2158 2592 2274 
C 2592 2558 2349 2816 1926 2816 
C 1254 2816 288 2210 288 1073 
C 288 402 672 -64 1254 -64 
C 2125 -64 2675 609 2675 692 
C 2675 730 2637 762 2611 762 
C 2592 762 2586 756 2528 699 
C 2118 159 1510 64 1267 64 
C 902 64 710 350 710 822 
C 710 911 710 1071 806 1479 
L 1146 1479 
z
M 838 1600 
C 1114 2592 1722 2689 1926 2689 
C 2208 2689 2400 2522 2400 2277 
C 2400 1600 1376 1600 1107 1600 
L 838 1600 
z
" transform="scale(0.015625)"/>
      </defs>
      <use xlink:href="#CMMI12-15" transform="scale(0.996264)"/>
      <use xlink:href="#CMMI12-67" transform="translate(56.904072 -14.943915) scale(0.697382)"/>
      <use xlink:href="#CMMI12-63" transform="translate(92.103753 -14.943915) scale(0.697382)"/>
      <use xlink:href="#CMMI12-65" transform="translate(121.491885 -14.943915) scale(0.697382)"/>
     </g>
    </g>
   </g>
   <g id="line2d_14">
    <path d="M 46.579678 336.798402 
L 48.672178 334.346536 
L 50.764678 332.324172 
L 63.319678 331.86749 
L 71.689678 331.087553 
L 75.874678 330.536264 
L 80.059678 329.794292 
L 84.244678 328.968414 
L 88.429678 327.744613 
L 94.707178 325.475945 
L 98.892178 323.544667 
L 103.077178 321.454221 
L 107.262178 319.128483 
L 109.354678 317.783792 
L 113.539678 315.573446 
L 117.724678 313.406654 
L 121.909678 311.128241 
L 128.187178 308.40951 
L 130.279678 307.771713 
L 134.464678 306.637776 
L 138.649678 305.557683 
L 140.742178 304.840993 
L 144.927178 303.827985 
L 147.019678 303.043451 
L 149.112178 302.089538 
L 153.297182 299.75796 
L 155.389682 298.32929 
L 159.574678 294.57377 
L 161.667178 292.217053 
L 163.759682 289.316389 
L 165.852182 286.064406 
L 167.944678 281.673628 
L 170.037178 276.33602 
L 172.129678 270.288399 
L 176.314682 255.350994 
L 178.407178 246.489638 
L 180.499678 236.951567 
L 186.777182 204.197817 
L 190.962178 182.165145 
L 195.147182 165.086521 
L 197.239682 158.409445 
L 199.332178 152.370434 
L 201.424678 146.675543 
L 203.517178 141.700736 
L 205.609682 140.76602 
L 207.702182 140.04885 
L 209.794678 139.748211 
L 211.887178 140.85218 
L 213.979678 143.569823 
L 216.072178 146.964931 
L 218.164678 151.159449 
L 220.257182 155.926839 
L 222.349682 160.407037 
L 226.534678 173.139472 
L 230.719682 187.027633 
L 232.812182 193.689402 
L 234.904678 201.04346 
L 236.997178 207.624228 
L 245.36718 237.352427 
L 247.459678 244.327834 
L 251.644682 256.801619 
L 257.922178 275.002088 
L 260.014678 280.394935 
L 264.199682 289.687868 
L 268.384678 297.230669 
L 270.477178 300.177352 
L 272.569682 302.576779 
L 274.662182 304.77693 
L 276.754678 306.577232 
L 278.847178 308.220496 
L 280.939678 309.540624 
L 285.124678 311.590422 
L 287.217178 312.456725 
L 295.587178 315.35073 
L 297.679678 316.234645 
L 303.957178 318.130027 
L 306.049678 318.978949 
L 314.419678 321.827015 
L 318.604678 323.459913 
L 322.789678 324.838545 
L 324.882178 325.682057 
L 326.974678 326.402314 
L 335.344678 328.677688 
L 345.807178 330.842557 
L 349.992178 331.413254 
L 358.362178 332.300585 
L 366.732178 332.819673 
L 373.009678 333.151949 
L 375.102178 333.163447 
L 377.194678 334.917937 
L 379.287178 336.962513 
L 379.287178 336.962513 
" clip-path="url(#p7a6a931a8f)" style="fill: none; stroke: #ff8c00; stroke-width: 1.5; stroke-linecap: square"/>
   </g>
   <g id="line2d_15">
    <path d="M 46.579678 336.407879 
L 48.672178 332.662362 
L 50.764678 329.457425 
L 61.227178 328.376037 
L 71.689678 327.075383 
L 80.059678 325.834341 
L 88.429678 324.370585 
L 96.799678 322.62881 
L 103.077178 321.085485 
L 109.354678 319.303277 
L 115.632178 317.215078 
L 119.817178 315.626589 
L 124.002178 313.831131 
L 128.187178 311.820679 
L 132.372178 309.567997 
L 136.557178 307.010978 
L 140.742178 304.101296 
L 142.834678 302.490822 
L 144.927178 300.726734 
L 147.019678 298.816756 
L 149.112178 296.74475 
L 151.204678 294.494516 
L 153.297182 292.049092 
L 155.389682 289.386615 
L 157.482178 286.425289 
L 159.574678 283.183046 
L 161.667178 279.650406 
L 163.759682 275.801676 
L 165.852182 271.615664 
L 167.944678 267.086692 
L 170.037178 262.123673 
L 172.129678 256.783281 
L 174.222182 251.082836 
L 176.314682 244.994657 
L 178.407178 238.500455 
L 180.499678 231.619644 
L 184.684682 216.350242 
L 188.869678 199.355787 
L 190.962178 190.249014 
L 195.147182 170.781176 
L 199.332178 150.701178 
L 201.424678 141.191193 
L 203.517178 132.307884 
L 205.609682 124.63901 
L 207.702182 118.453546 
L 209.794678 114.381124 
L 211.887178 112.256044 
L 213.979678 112.282979 
L 216.072178 114.460233 
L 218.164678 118.583205 
L 220.257182 124.836633 
L 222.349682 132.529523 
L 224.442178 141.454053 
L 228.627178 160.89814 
L 232.812182 180.967027 
L 236.997178 199.696335 
L 241.182182 216.695369 
L 245.36718 231.941189 
L 247.459678 238.80929 
L 249.552178 245.288855 
L 251.644682 251.356988 
L 253.737182 257.036622 
L 255.829678 262.359449 
L 257.922178 267.298712 
L 260.014678 271.805266 
L 262.107182 275.97378 
L 264.199682 279.805854 
L 266.292178 283.321776 
L 268.384678 286.548158 
L 270.477178 289.495266 
L 272.569682 292.147285 
L 274.662182 294.580605 
L 276.754678 296.821658 
L 278.847178 298.887388 
L 283.032178 302.548123 
L 287.217178 305.655035 
L 291.402178 308.369993 
L 295.587178 310.764218 
L 299.772178 312.884252 
L 303.957178 314.781152 
L 308.142178 316.466539 
L 314.419678 318.66012 
L 320.697178 320.534806 
L 326.974678 322.147714 
L 333.252178 323.546122 
L 341.622178 325.141617 
L 349.992178 326.48617 
L 360.454678 327.889559 
L 370.917178 329.051254 
L 375.102178 329.459796 
L 377.194678 332.663733 
L 379.287178 336.408158 
L 379.287178 336.408158 
" clip-path="url(#p7a6a931a8f)" style="fill: none; stroke: #008000; stroke-width: 1.5; stroke-linecap: square"/>
   </g>
   <g id="line2d_16">
    <path d="M 212.933428 339.84 
L 212.933428 7.2 
" clip-path="url(#p7a6a931a8f)" style="fill: none; stroke-dasharray: 1.85,0.8; stroke-dashoffset: 0; stroke: #000000; stroke-width: 0.5"/>
   </g>
   <g id="patch_3">
    <path d="M 45.533428 339.84 
L 45.533428 7.2 
" style="fill: none; stroke: #000000; stroke-width: 0.8; stroke-linejoin: miter; stroke-linecap: square"/>
   </g>
   <g id="patch_4">
    <path d="M 380.333428 339.84 
L 380.333428 7.2 
" style="fill: none; stroke: #000000; stroke-width: 0.8; stroke-linejoin: miter; stroke-linecap: square"/>
   </g>
   <g id="patch_5">
    <path d="M 45.533428 339.84 
L 380.333428 339.84 
" style="fill: none; stroke: #000000; stroke-width: 0.8; stroke-linejoin: miter; stroke-linecap: square"/>
   </g>
   <g id="patch_6">
    <path d="M 45.533428 7.2 
L 380.333428 7.2 
" style="fill: none; stroke: #000000; stroke-width: 0.8; stroke-linejoin: miter; stroke-linecap: square"/>
   </g>
   <g id="legend_1">
    <g id="line2d_17">
     <path d="M 284.153086 24.7 
L 298.153086 24.7 
L 312.153086 24.7 
" style="fill: none; stroke: #ff8c00; stroke-width: 1.5; stroke-linecap: square"/>
    </g>
    <g id="text_16">
     <!-- Median -->
     <g transform="translate(323.353086 29.6) scale(0.14 -0.14)">
      <defs>
       <path id="CMR17-4d" d="M 1338 4224 
C 1299 4320 1293 4320 1158 4320 
L 339 4320 
L 339 4160 
C 781 4160 851 4160 851 3875 
L 851 610 
C 851 451 851 153 339 153 
L 339 -13 
C 486 0 755 0 915 0 
C 1075 0 1344 0 1491 -13 
L 1491 153 
C 979 153 979 451 979 610 
L 979 4135 
L 986 4135 
L 2490 89 
C 2515 25 2528 -13 2579 -13 
C 2630 -13 2643 25 2669 89 
L 4186 4166 
L 4192 4166 
L 4192 438 
C 4192 153 4122 153 3680 153 
L 3680 -13 
C 3853 0 4198 0 4384 0 
C 4570 0 4922 0 5094 -13 
L 5094 153 
C 4653 153 4582 153 4582 438 
L 4582 3875 
C 4582 4160 4653 4160 5094 4160 
L 5094 4320 
L 4282 4320 
C 4147 4320 4141 4314 4102 4218 
L 2720 502 
L 1338 4224 
z
" transform="scale(0.015625)"/>
       <path id="CMR17-69" d="M 992 3909 
C 992 4049 877 4170 730 4170 
C 589 4170 467 4056 467 3909 
C 467 3769 582 3648 730 3648 
C 870 3648 992 3763 992 3909 
z
M 243 2706 
L 243 2541 
C 602 2541 653 2502 653 2197 
L 653 427 
C 653 184 627 153 218 153 
L 218 -13 
C 371 0 646 0 806 0 
C 960 0 1222 0 1370 -13 
L 1370 153 
C 992 153 979 191 979 420 
L 979 2776 
L 243 2706 
z
" transform="scale(0.015625)"/>
       <path id="CMR17-61" d="M 2304 1653 
C 2304 2072 2304 2294 2035 2543 
C 1798 2752 1523 2816 1306 2816 
C 800 2816 435 2407 435 1971 
C 435 1728 627 1728 666 1728 
C 749 1728 896 1778 896 1954 
C 896 2112 774 2181 666 2181 
C 640 2181 608 2174 589 2168 
C 723 2592 1069 2714 1293 2714 
C 1613 2714 1965 2429 1965 1885 
L 1965 1600 
C 1587 1600 1133 1549 774 1357 
C 371 1133 256 813 256 570 
C 256 77 832 -64 1171 -64 
C 1523 -64 1850 139 1990 511 
C 2003 233 2182 -18 2464 -18 
C 2598 -18 2938 70 2938 567 
L 2938 920 
L 2822 920 
L 2822 562 
C 2822 178 2650 128 2566 128 
C 2304 128 2304 458 2304 738 
L 2304 1653 
z
M 1965 870 
C 1965 317 1568 38 1216 38 
C 896 38 646 275 646 570 
C 646 761 730 1100 1101 1305 
C 1408 1478 1760 1504 1965 1504 
L 1965 870 
z
" transform="scale(0.015625)"/>
       <path id="CMR17-6e" d="M 2656 1933 
C 2656 2259 2592 2790 1837 2790 
C 1331 2790 1069 2400 973 2144 
L 966 2144 
L 966 2790 
L 211 2720 
L 211 2554 
C 589 2554 646 2515 646 2208 
L 646 428 
C 646 184 621 153 211 153 
L 211 -13 
C 365 0 646 0 813 0 
C 979 0 1267 0 1421 -13 
L 1421 153 
C 1011 153 986 178 986 428 
L 986 1658 
C 986 2247 1344 2688 1792 2688 
C 2266 2688 2317 2266 2317 1958 
L 2317 428 
C 2317 184 2291 153 1882 153 
L 1882 -13 
C 2035 0 2317 0 2483 0 
C 2650 0 2938 0 3091 -13 
L 3091 153 
C 2682 153 2656 178 2656 428 
L 2656 1933 
z
" transform="scale(0.015625)"/>
      </defs>
      <use xlink:href="#CMR17-4d" transform="scale(0.996264)"/>
      <use xlink:href="#CMR17-65" transform="translate(84.686941 0) scale(0.996264)"/>
      <use xlink:href="#CMR17-64" transform="translate(125.172601 0) scale(0.996264)"/>
      <use xlink:href="#CMR17-69" transform="translate(176.067971 0) scale(0.996264)"/>
      <use xlink:href="#CMR17-61" transform="translate(200.939029 0) scale(0.996264)"/>
      <use xlink:href="#CMR17-6e" transform="translate(246.629506 0) scale(0.996264)"/>
     </g>
    </g>
    <g id="patch_7">
     <path d="M 284.153086 49.112028 
L 312.153086 49.112028 
L 312.153086 39.312028 
L 284.153086 39.312028 
z
" style="fill: #ff8c00; fill-opacity: 0.2; stroke: #ff8c00; stroke-opacity: 0.2; stroke-linejoin: miter"/>
    </g>
    <g id="text_17">
     <!-- 68$\%$ -->
     <g transform="translate(323.353086 49.112028) scale(0.14 -0.14)">
      <defs>
       <path id="CMR17-36" d="M 678 2176 
C 678 3690 1395 4032 1811 4032 
C 1946 4032 2272 4009 2400 3776 
C 2298 3776 2106 3776 2106 3553 
C 2106 3381 2246 3323 2336 3323 
C 2394 3323 2566 3348 2566 3560 
C 2566 3954 2246 4179 1805 4179 
C 1043 4179 243 3390 243 1984 
C 243 253 966 -128 1478 -128 
C 2099 -128 2688 427 2688 1283 
C 2688 2081 2170 2662 1517 2662 
C 1126 2662 838 2407 678 1960 
L 678 2176 
z
M 1478 25 
C 691 25 691 1200 691 1436 
C 691 1896 909 2560 1504 2560 
C 1613 2560 1926 2560 2138 2120 
C 2253 1870 2253 1609 2253 1289 
C 2253 944 2253 690 2118 434 
C 1978 171 1773 25 1478 25 
z
" transform="scale(0.015625)"/>
       <path id="CMR17-38" d="M 1741 2264 
C 2144 2467 2554 2773 2554 3263 
C 2554 3841 1990 4179 1472 4179 
C 890 4179 378 3759 378 3180 
C 378 3021 416 2747 666 2505 
C 730 2442 998 2251 1171 2130 
C 883 1983 211 1634 211 934 
C 211 279 838 -128 1459 -128 
C 2144 -128 2720 362 2720 1010 
C 2720 1590 2330 1857 2074 2029 
L 1741 2264 
z
M 902 2822 
C 851 2854 595 3051 595 3351 
C 595 3739 998 4032 1459 4032 
C 1965 4032 2336 3676 2336 3262 
C 2336 2669 1670 2331 1638 2331 
C 1632 2331 1626 2331 1574 2370 
L 902 2822 
z
M 2080 1519 
C 2176 1449 2483 1240 2483 851 
C 2483 381 2010 25 1472 25 
C 890 25 448 438 448 940 
C 448 1443 838 1862 1280 2060 
L 2080 1519 
z
" transform="scale(0.015625)"/>
       <path id="CMR17-25" d="M 4640 959 
C 4640 1698 4275 2240 3846 2240 
C 3411 2240 2970 1736 2970 959 
C 2970 183 3405 -320 3846 -320 
C 4275 -320 4640 215 4640 959 
z
M 3853 -218 
C 3686 -218 3270 -66 3270 959 
C 3270 1991 3686 2138 3853 2138 
C 4205 2138 4525 1634 4525 959 
C 4525 285 4205 -218 3853 -218 
z
M 4083 4577 
C 4128 4647 4134 4653 4134 4685 
C 4134 4761 4077 4800 4026 4800 
C 3962 4800 3936 4756 3891 4706 
C 3520 4190 3008 4134 2746 4134 
C 2106 4134 1715 4494 1594 4607 
C 1510 4682 1389 4800 1171 4800 
C 736 4800 294 4296 294 3519 
C 294 2743 730 2240 1171 2240 
C 1600 2240 1965 2778 1965 3527 
C 1965 3969 1830 4270 1811 4308 
C 2202 4064 2586 4032 2752 4032 
C 3162 4032 3456 4183 3616 4289 
L 3622 4283 
L 858 -84 
C 800 -174 800 -187 800 -206 
C 800 -276 858 -320 915 -320 
C 973 -320 992 -289 1037 -218 
L 4083 4577 
z
M 1178 2342 
C 1011 2342 595 2494 595 3519 
C 595 4551 1011 4698 1178 4698 
C 1530 4698 1850 4194 1850 3519 
C 1850 2845 1530 2342 1178 2342 
z
" transform="scale(0.015625)"/>
      </defs>
      <use xlink:href="#CMR17-36" transform="scale(0.996264)"/>
      <use xlink:href="#CMR17-38" transform="translate(45.690477 0) scale(0.996264)"/>
      <use xlink:href="#CMR17-25" transform="translate(91.380954 0) scale(0.996264)"/>
     </g>
    </g>
    <g id="patch_8">
     <path d="M 284.153086 68.624057 
L 312.153086 68.624057 
L 312.153086 58.824057 
L 284.153086 58.824057 
z
" style="fill: #ff8c00; fill-opacity: 0.1; stroke: #ff8c00; stroke-opacity: 0.1; stroke-linejoin: miter"/>
    </g>
    <g id="text_18">
     <!-- 95$\%$ -->
     <g transform="translate(323.353086 68.624057) scale(0.14 -0.14)">
      <defs>
       <path id="CMR17-39" d="M 2253 1864 
C 2253 464 1670 31 1190 31 
C 1043 31 685 31 538 294 
C 704 268 826 357 826 518 
C 826 692 685 749 595 749 
C 538 749 365 723 365 506 
C 365 71 742 -128 1203 -128 
C 1939 -128 2688 674 2688 2073 
C 2688 3817 1971 4179 1485 4179 
C 851 4179 243 3628 243 2778 
C 243 1991 762 1408 1414 1408 
C 1952 1408 2189 1903 2253 2112 
L 2253 1864 
z
M 1427 1510 
C 1254 1510 1011 1542 813 1922 
C 678 2169 678 2461 678 2771 
C 678 3146 678 3405 858 3684 
C 947 3817 1114 4032 1485 4032 
C 2240 4032 2240 2885 2240 2632 
C 2240 2182 2035 1510 1427 1510 
z
" transform="scale(0.015625)"/>
      </defs>
      <use xlink:href="#CMR17-39" transform="scale(0.996264)"/>
      <use xlink:href="#CMR17-35" transform="translate(45.690477 0) scale(0.996264)"/>
      <use xlink:href="#CMR17-25" transform="translate(91.380954 0) scale(0.996264)"/>
     </g>
    </g>
    <g id="line2d_18">
     <path d="M 284.153086 83.236085 
L 298.153086 83.236085 
L 312.153086 83.236085 
" style="fill: none; stroke: #008000; stroke-width: 1.5; stroke-linecap: square"/>
    </g>
    <g id="text_19">
     <!-- True -->
     <g transform="translate(323.353086 88.136085) scale(0.14 -0.14)">
      <defs>
       <path id="CMR17-54" d="M 3981 4326 
L 288 4326 
L 179 2918 
L 294 2918 
C 378 3976 467 4160 1453 4160 
C 1568 4160 1754 4160 1805 4154 
C 1926 4135 1926 4058 1926 3912 
L 1926 459 
C 1926 230 1907 160 1376 160 
L 1197 160 
L 1197 0 
C 1504 0 1824 0 2138 0 
C 2451 0 2771 0 3078 0 
L 3078 160 
L 2899 160 
C 2368 160 2349 230 2349 459 
L 2349 3912 
C 2349 4052 2349 4129 2464 4154 
C 2515 4160 2701 4160 2816 4160 
C 3795 4160 3891 3976 3974 2918 
L 4090 2918 
L 3981 4326 
z
" transform="scale(0.015625)"/>
       <path id="CMR17-72" d="M 960 1497 
C 960 2112 1222 2688 1702 2688 
C 1747 2688 1792 2682 1837 2662 
C 1837 2662 1696 2617 1696 2452 
C 1696 2298 1818 2234 1914 2234 
C 1990 2234 2131 2279 2131 2458 
C 2131 2663 1926 2790 1709 2790 
C 1222 2790 1011 2317 947 2093 
L 941 2093 
L 941 2790 
L 198 2720 
L 198 2554 
C 576 2554 634 2515 634 2208 
L 634 428 
C 634 184 608 153 198 153 
L 198 -13 
C 352 0 646 0 813 0 
C 998 0 1325 0 1498 -13 
L 1498 153 
C 1037 153 960 153 960 440 
L 960 1497 
z
" transform="scale(0.015625)"/>
       <path id="CMR17-75" d="M 1882 2693 
L 1882 2528 
C 2259 2528 2317 2489 2317 2186 
L 2317 1032 
C 2317 500 2029 38 1555 38 
C 1030 38 986 348 986 678 
L 986 2763 
L 211 2693 
L 211 2528 
C 467 2528 640 2528 646 2274 
L 646 1058 
C 646 633 646 361 813 183 
C 896 101 1056 -64 1517 -64 
C 2061 -64 2272 377 2323 506 
L 2330 506 
L 2330 -63 
L 3091 -63 
L 3091 128 
C 2714 128 2656 166 2656 473 
L 2656 2763 
L 1882 2693 
z
" transform="scale(0.015625)"/>
      </defs>
      <use xlink:href="#CMR17-54" transform="scale(0.996264)"/>
      <use xlink:href="#CMR17-72" transform="translate(58.702625 0) scale(0.996264)"/>
      <use xlink:href="#CMR17-75" transform="translate(93.983393 0) scale(0.996264)"/>
      <use xlink:href="#CMR17-65" transform="translate(144.878763 0) scale(0.996264)"/>
     </g>
    </g>
   </g>
  </g>
 </g>
 <defs>
  <clipPath id="p7a6a931a8f">
   <rect x="45.533428" y="7.2" width="334.8" height="332.64"/>
  </clipPath>
 </defs>
</svg>
